<svg version="1.1" id="Layer_1" xmlns="http://www.w3.org/2000/svg" xmlns:xlink="http://www.w3.org/1999/xlink" x="0px" y="0px"
	 width="100%" viewBox="0 0 500 500" enable-background="new 0 0 500 500" xml:space="preserve">
<path fill="#FFFFFF" opacity="1.000000" stroke="none" 
	d="
M501.000000,252.000000 
	C501.000000,334.982086 501.000000,417.964172 501.000000,500.973145 
	C334.387207,500.973145 167.774414,500.973145 1.080806,500.973145 
	C1.080806,334.423187 1.080806,167.846344 1.080806,1.134748 
	C167.666595,1.134748 334.333282,1.134748 501.000000,1.128630 
	C501.000000,82.438332 501.000000,163.754150 500.614868,245.541077 
	C498.084381,246.618790 495.939087,247.225418 493.919434,247.450195 
	C494.259766,236.630676 494.608521,226.192230 494.547546,215.756165 
	C494.538208,214.154373 492.640686,212.563583 491.326385,210.684906 
	C489.433716,210.219742 487.831146,210.037369 486.267578,209.577606 
	C482.065521,207.654160 479.831207,209.265152 478.113892,213.392120 
	C474.049469,223.159714 469.524139,232.735489 465.103333,241.923965 
	C464.557648,232.599075 464.218658,223.729156 463.518341,214.887848 
	C463.387482,213.235992 461.808136,211.698868 460.569153,209.874603 
	C457.252563,209.476273 454.264069,209.312164 450.864807,209.078186 
	C449.048157,210.215225 446.783630,211.185669 446.375610,212.667374 
	C443.698151,222.390533 443.545654,232.296188 446.188477,242.029007 
	C447.004395,245.033752 449.334930,247.627228 451.212433,250.636414 
	C454.052155,251.911697 456.651428,252.959549 459.545929,254.224518 
	C465.430847,255.976044 469.924622,253.889709 473.979431,250.615448 
	C474.285278,254.602585 472.628601,256.375488 469.136169,257.158936 
	C464.369781,258.228149 459.708618,259.766205 454.622742,261.094604 
	C447.543640,262.848450 441.625610,265.937653 437.171661,271.388153 
	C432.381592,277.250000 433.122314,283.498718 439.022583,288.006287 
	C438.992401,288.008209 438.993958,287.947784 439.041870,288.227234 
	C439.418549,288.663788 439.747314,288.820892 440.043121,288.989014 
	C440.010162,289.000031 439.994659,288.932281 440.164795,289.193634 
	C440.905334,289.707184 441.475708,289.959381 442.336212,290.400574 
	C446.658020,291.749878 450.689697,292.910248 454.981262,294.206635 
	C464.647278,294.747406 473.027191,291.736847 478.622131,284.320801 
	C483.548798,277.790558 487.734650,270.418732 490.748688,262.823669 
	C492.902008,257.397552 495.262329,253.442017 501.000000,252.000000 
M75.012611,208.980713 
	C75.012611,208.980713 75.086433,208.965500 75.078140,208.359528 
	C74.715858,208.213028 74.353577,208.066528 73.999016,208.002884 
	C73.999016,208.002884 74.081955,207.996155 73.903236,207.544525 
	C73.678482,207.257935 73.388382,207.154221 72.370697,206.910446 
	C71.232201,206.466675 70.093704,206.022903 68.395103,205.197632 
	C63.844776,203.351089 59.759754,204.651337 56.513828,207.790710 
	C53.705769,210.506592 51.554012,213.901062 48.793453,216.187225 
	C46.892288,213.085983 44.991119,209.984756 43.022568,206.918533 
	C43.022568,206.918533 43.089119,206.955109 43.327255,206.279816 
	C42.559837,205.808807 41.792423,205.337799 41.026718,204.968430 
	C41.026718,204.968430 41.127102,204.952316 40.968555,204.522141 
	C40.756130,204.251907 40.483067,204.157623 39.360344,203.925232 
	C38.295654,203.567078 37.230961,203.208939 35.770981,202.345322 
	C29.857819,200.684296 26.328011,204.438004 22.717567,206.981918 
	C22.764166,205.009125 23.183857,202.947632 22.742352,201.090897 
	C22.372030,199.533569 20.997066,198.215134 19.631981,196.310684 
	C18.808006,196.057281 17.984032,195.803864 16.613884,195.101639 
	C9.060126,193.627167 8.676215,193.748260 7.408018,201.039627 
	C3.691426,222.407806 2.403915,243.925156 4.139581,265.564941 
	C4.258814,267.051514 5.968219,268.410553 7.494177,270.228180 
	C8.353395,270.499939 9.212611,270.771729 10.601818,271.616882 
	C17.537710,272.221893 17.552788,272.223846 18.383863,265.779907 
	C19.276325,258.860016 19.825754,251.879120 21.079702,245.026382 
	C23.266956,233.073212 26.116550,221.288467 34.232384,212.173645 
	C34.858425,214.403168 35.870857,216.602539 36.047443,218.867111 
	C37.145653,232.950821 38.042900,247.050110 39.045280,261.141479 
	C39.184261,263.095276 38.148872,265.855621 42.258530,266.271729 
	C43.107658,266.516815 43.956787,266.761902 45.370827,267.575500 
	C51.919994,267.964447 51.778381,267.955658 52.159740,261.811127 
	C52.602539,254.676590 52.758183,247.453430 54.063366,240.460022 
	C55.948193,230.360794 58.416725,220.288651 66.433311,213.132690 
	C67.066429,217.843552 68.095833,222.540939 68.256561,227.267868 
	C68.695908,240.188660 68.439636,253.141479 69.204819,266.037323 
	C69.412170,269.532074 72.269127,272.869537 74.369667,276.793427 
	C75.902290,277.306641 77.434914,277.819855 79.417923,278.788269 
	C83.717804,280.389465 86.793617,278.703247 88.957497,275.038483 
	C92.286743,269.400085 95.492844,263.688995 99.082741,258.824707 
	C101.883743,263.187744 104.684753,267.550812 107.958099,272.381805 
	C108.336029,272.586884 108.713959,272.791931 109.413971,273.391479 
	C109.875084,273.563660 110.336205,273.735840 111.440651,274.271759 
	C114.031357,275.215607 116.622063,276.159485 119.715927,277.580658 
	C131.169525,279.530640 137.230911,276.557037 141.033707,265.644318 
	C143.412521,258.817902 144.217804,251.450943 145.891800,244.364944 
	C146.254868,242.828156 147.313736,241.455734 147.997513,239.955215 
	C147.997513,239.955215 147.935928,239.999207 148.626022,240.423401 
	C153.753433,240.139175 158.880829,239.854950 164.206360,239.559753 
	C164.322571,240.003754 164.565033,240.930099 164.807495,241.856445 
	C164.721649,241.729233 164.546860,241.579376 164.572052,241.480408 
	C164.604950,241.351181 164.796158,241.262238 165.289337,241.847244 
	C167.312088,242.927307 169.334839,244.007370 171.556412,245.871796 
	C172.247879,254.610336 172.812210,263.362701 173.759964,272.073395 
	C173.912292,273.473267 175.776047,274.686920 177.294250,276.469818 
	C178.124878,276.703613 178.955521,276.937378 180.343643,277.795593 
	C188.956650,278.370544 189.022781,278.300568 188.866714,269.910858 
	C188.842224,268.594482 188.950607,267.275665 189.628357,266.471161 
	C190.743668,267.332001 191.858963,268.192810 192.999222,269.001495 
	C192.999222,269.001495 192.944046,269.018860 192.586304,269.689819 
	C193.721329,270.481689 194.856354,271.273560 195.997345,272.001312 
	C195.997345,272.001312 195.934250,272.014099 195.824051,272.601562 
	C196.170410,272.783997 196.516769,272.966400 196.989929,273.191650 
	C196.989929,273.191650 197.082169,273.094696 197.235382,273.669434 
	C197.810150,273.743744 198.384933,273.818085 199.514862,274.377716 
	C201.130615,274.941956 202.746368,275.506165 204.919342,276.536621 
	C210.828751,278.028534 215.960159,276.473724 219.404099,271.570862 
	C224.302505,264.597382 227.035828,256.695740 228.278778,248.509979 
	C228.564163,248.635681 228.849533,248.761383 229.269562,249.750671 
	C229.892883,257.980286 230.429886,266.217957 231.197144,274.434143 
	C231.402115,276.629089 230.665695,279.838898 235.209244,280.244720 
	C237.444519,280.470154 239.679779,280.695587 242.460297,281.294708 
	C246.419144,281.859283 246.820190,279.399719 246.712402,276.388000 
	C246.450424,269.066864 246.083237,261.741943 246.160416,254.422791 
	C246.175354,253.005081 247.805756,250.619370 249.047897,250.354568 
	C259.508362,248.124695 267.642120,242.565704 274.074890,234.760818 
	C274.962677,235.290771 275.850433,235.820724 277.287476,236.852341 
	C278.200104,237.184601 279.112762,237.516876 280.544342,237.938400 
	C280.726868,237.664017 280.909424,237.389648 281.061859,237.034363 
	C281.061859,237.034363 281.135162,237.079956 281.767761,236.849716 
	C283.255646,235.818054 284.743530,234.786392 286.844147,234.381866 
	C286.879272,245.448212 286.763031,256.519012 287.088531,267.576813 
	C287.147339,269.575775 289.019623,271.521393 290.630951,273.816437 
	C291.463165,274.109833 292.295349,274.403229 293.660492,275.005615 
	C300.383514,276.648590 301.730255,275.623413 302.023865,268.900269 
	C302.335876,261.755554 302.608582,254.603439 303.187500,247.478043 
	C303.584137,242.596298 304.475098,237.754700 306.032745,232.971970 
	C309.664154,232.973953 313.295563,232.975952 317.015076,233.882004 
	C317.695953,245.234360 317.776794,256.670807 319.350189,267.898102 
	C319.988251,272.451080 323.878082,276.548340 326.724152,281.129486 
	C327.108032,281.449524 327.491913,281.769531 328.148285,282.648987 
	C328.744049,282.755920 329.339783,282.862854 330.394745,283.508362 
	C331.288269,283.810211 332.181763,284.112030 333.569244,284.847595 
	C337.436737,286.198120 341.242249,286.060059 344.150360,283.032928 
	C346.399933,280.691254 348.020294,277.745087 350.775330,275.121246 
	C351.698151,275.430817 352.620056,276.005524 353.543915,276.008636 
	C362.150726,276.037598 370.764648,276.150177 379.361176,275.828033 
	C382.330872,275.716766 385.257385,274.453400 388.203644,273.716309 
	C388.197357,273.094757 388.191071,272.473236 388.184784,271.851715 
	C386.330963,271.233154 384.516449,270.331360 382.613434,270.067017 
	C380.173706,269.728088 377.662750,269.901917 375.333832,268.953278 
	C376.226562,248.658203 377.266449,228.368042 377.941895,208.065735 
	C378.224579,199.568192 377.872925,199.556488 385.792297,197.005646 
	C386.446320,196.462799 387.100342,195.919952 387.754333,195.377106 
	C386.709991,194.739304 385.665680,194.101501 384.059906,193.116241 
	C378.384491,193.022675 372.709076,192.929108 365.953003,192.955887 
	C365.229065,192.924866 364.505157,192.893829 363.954071,192.316330 
	C358.497375,190.053726 353.795349,192.109161 349.514374,195.216736 
	C347.099487,196.969666 348.187195,198.170197 351.372986,198.904846 
	C354.549194,198.605713 357.725403,198.306580 360.997040,198.865311 
	C359.966522,216.345215 358.936005,233.825104 357.293427,251.169327 
	C356.878387,251.157303 356.463348,251.145279 355.488068,250.774826 
	C354.658966,250.509933 353.829834,250.245041 352.554077,249.443970 
	C348.794952,248.153931 348.657928,251.416306 347.653870,253.436096 
	C343.503357,261.785248 339.423309,270.169495 335.006500,277.758789 
	C330.720978,266.756073 330.909393,255.343643 331.440704,243.789474 
	C331.764008,236.758118 332.409271,230.641525 341.078857,229.576294 
	C341.138580,229.568970 341.163483,229.278076 341.332397,228.627945 
	C340.462158,228.268341 339.522064,227.879898 337.529175,226.951477 
	C336.367737,226.795227 335.206268,226.638962 333.954498,225.846710 
	C335.588318,217.575073 337.269562,209.312271 338.814758,201.024109 
	C339.113098,199.423859 340.864075,196.825317 336.637939,196.408737 
	C335.825836,196.204285 335.013702,195.999832 333.617462,195.178558 
	C323.584991,194.411011 323.055145,194.646393 321.178101,203.862366 
	C319.891876,210.177536 319.193970,216.611069 317.989258,222.945328 
	C317.703918,224.445435 316.440216,225.759476 315.324219,227.301910 
	C315.135162,227.468506 315.076447,227.672623 314.845581,228.006775 
	C314.845581,228.006775 314.663696,228.265594 313.846405,228.129379 
	C311.245209,228.147934 308.643982,228.166489 305.463379,227.934128 
	C305.201660,227.606979 304.939911,227.279846 304.737000,226.029343 
	C304.489288,218.556335 304.423553,211.069275 303.848083,203.621597 
	C303.725616,202.036850 301.746948,200.595535 300.051941,198.674835 
	C299.176941,198.374207 298.301941,198.073563 297.036560,197.299881 
	C289.584656,196.188965 289.431458,196.174911 288.777252,203.307190 
	C288.203308,209.564148 288.185059,215.873337 287.563202,222.123810 
	C287.399994,223.764404 286.287292,225.898911 284.946564,226.713089 
	C282.041626,228.477203 278.707489,229.534607 275.825745,230.162613 
	C278.504150,223.721588 280.012817,217.071136 277.979889,210.217575 
	C277.302979,207.935455 275.390320,206.019913 273.999451,203.991150 
	C273.999451,203.991150 274.064697,203.967651 274.139618,203.334259 
	C273.771637,203.195587 273.403687,203.056915 273.008484,202.986862 
	C273.008484,202.986862 273.078247,202.962708 273.055145,202.344147 
	C272.686310,202.259140 272.317444,202.174118 271.278870,201.770035 
	C269.296051,200.668198 267.313202,199.566345 264.717346,198.175415 
	C257.571289,197.129745 251.067612,198.136810 245.946655,203.134766 
	C245.862122,201.345566 246.105957,199.454300 245.591339,197.798798 
	C245.163376,196.422043 243.843979,195.322372 242.377441,193.693802 
	C241.529022,193.453476 240.680588,193.213150 239.378113,192.395767 
	C231.519424,192.090012 230.304810,192.856674 230.026855,200.045761 
	C229.522751,213.084702 229.431732,226.139389 228.964340,239.180206 
	C228.907684,240.761047 227.591904,242.296753 225.790665,243.955307 
	C225.075317,243.959030 224.359970,243.962753 223.474091,243.507355 
	C223.414200,243.354507 223.387573,243.171890 223.284973,243.057281 
	C223.184357,242.944885 222.909866,242.807129 222.876190,242.841537 
	C219.657578,246.129166 217.112030,249.584442 215.868927,254.336945 
	C214.276276,260.425751 212.453491,266.782349 206.271317,270.244995 
	C205.861511,270.139008 205.451706,270.033020 205.007751,269.992920 
	C205.007751,269.992920 205.076279,269.964417 205.266388,269.247040 
	C200.787872,261.932251 196.309372,254.617462 191.591080,246.911041 
	C193.852661,246.139633 195.692947,245.527893 197.522446,244.885452 
	C212.695297,239.557220 222.457840,225.372910 220.805054,209.979156 
	C220.432999,206.513931 217.647125,203.307861 215.990021,200.022919 
	C215.990021,200.022919 216.032852,200.012558 215.931442,199.630936 
	C215.645370,199.572464 215.359314,199.513992 214.532043,198.964554 
	C214.216980,198.593796 213.901917,198.223053 213.640503,197.586914 
	C213.537292,197.379150 213.385727,197.334335 212.534210,196.985565 
	C209.397446,196.263306 206.260681,195.541046 202.922409,194.225739 
	C196.399902,192.671585 192.465057,197.019531 188.129593,199.812057 
	C188.049423,197.867004 188.298920,195.828110 187.780792,194.007706 
	C187.393112,192.645569 186.015961,191.565048 184.487732,189.884171 
	C183.746506,189.737579 183.005264,189.590988 181.862961,188.914536 
	C174.474152,188.103546 172.536499,189.352371 172.195816,196.203506 
	C171.577606,208.635941 171.295227,221.085083 170.296967,233.188965 
	C169.329987,232.660019 168.363007,232.131088 166.797119,230.983887 
	C166.239838,230.869431 165.682571,230.754959 164.819901,230.120361 
	C163.234573,230.441040 161.627884,230.681656 160.067917,231.097458 
	C155.438568,232.331406 150.827591,233.634338 146.082306,234.012726 
	C144.520599,225.776398 143.379700,217.426346 141.199417,209.357162 
	C140.268570,205.912140 137.168686,203.053192 135.005356,199.990479 
	C135.005356,199.990479 135.080063,199.963303 135.390167,199.288971 
	C134.226715,198.212173 133.063263,197.135376 131.955719,196.092255 
	C131.955719,196.092255 132.016205,196.067703 131.695389,195.795105 
	C131.590744,195.703568 131.467514,195.625748 131.386917,195.516495 
	C131.313446,195.416901 131.286209,195.283218 131.238586,195.164566 
	C131.269745,195.417450 131.300919,195.670319 130.844986,195.289352 
	C128.224808,193.675751 125.604630,192.062149 122.410339,190.150986 
	C116.830070,188.809494 113.168365,190.504120 109.279938,197.215866 
	C100.357101,212.617401 95.311707,229.046127 96.418388,246.995300 
	C93.009209,245.020981 93.574623,248.450195 92.792671,249.780838 
	C88.640381,256.846619 84.596031,263.975830 80.312553,270.150360 
	C80.343918,262.523438 80.320747,254.895798 80.420624,247.269775 
	C80.542252,237.983292 81.198036,228.675613 80.714249,219.424622 
	C80.544914,216.186691 77.681427,213.089676 75.999489,209.985031 
	C75.999489,209.985031 76.071571,209.965149 76.178291,209.320084 
	C75.798027,209.183258 75.417763,209.046417 75.012611,208.980713 
M426.810944,203.166687 
	C431.857635,202.996292 436.972137,207.128311 442.629272,203.091385 
	C437.952850,197.907745 431.829346,198.490936 425.607910,196.788940 
	C412.000305,194.183075 405.154388,198.521042 402.917694,211.285217 
	C402.345825,214.548965 401.953064,217.857529 401.713348,221.162582 
	C401.431610,225.046555 401.231049,228.860580 396.149323,230.918350 
	C394.631287,231.833649 393.113220,232.748947 390.749176,234.174332 
	C393.880646,235.214752 395.740326,235.832626 397.531006,236.503464 
	C397.531006,236.503464 397.462769,236.455704 398.335449,236.489532 
	C399.199127,236.376343 400.062836,236.263138 400.896393,237.227753 
	C401.277618,248.519379 401.542328,259.817474 402.168854,271.095490 
	C402.260193,272.739014 404.079315,274.286560 405.739594,276.264038 
	C406.673035,276.543793 407.606445,276.823578 409.014221,277.652985 
	C419.721802,278.799347 419.941406,278.476715 419.254669,267.777588 
	C418.735413,259.687103 418.646973,251.569824 418.229675,243.471527 
	C418.029083,239.578781 417.478394,235.687866 423.314087,234.094559 
	C428.048584,233.519043 432.783051,232.943527 437.517548,232.368011 
	C437.555573,231.782913 437.593597,231.197815 437.631622,230.612732 
	C435.275757,230.063522 432.907349,229.016907 430.566803,229.075912 
	C426.558167,229.176910 422.566925,229.969543 419.278809,230.207001 
	C419.859528,222.223648 420.229584,214.213638 421.233246,206.283813 
	C421.396088,204.997620 424.369171,204.067139 426.810944,203.166687 
z"/>
<path fill="#5F1AEB" opacity="1.000000" stroke="none" 
	d="
M451.275604,209.148056 
	C454.264069,209.312164 457.252563,209.476273 460.572571,210.336456 
	C461.644653,222.347336 462.385162,233.662125 463.115143,245.343842 
	C464.036774,245.848511 465.506836,246.426392 465.813080,246.052063 
	C467.686798,243.761887 469.742950,241.451355 470.911224,238.785187 
	C474.485840,230.627243 477.510925,222.226395 481.165741,214.107300 
	C481.980621,212.297012 484.496063,211.252228 486.228546,209.855011 
	C487.831146,210.037369 489.433716,210.219742 491.412231,211.154587 
	C491.788147,224.267273 491.788147,236.627502 491.788147,249.462479 
	C492.640808,248.769333 493.217285,248.300705 493.793762,247.832062 
	C495.939087,247.225418 498.084381,246.618790 500.614868,246.006073 
	C501.000000,247.066666 501.000000,248.133347 500.638550,249.625793 
	C494.896881,252.229538 490.326080,254.391418 488.336548,261.159119 
	C483.357391,278.096283 473.858368,291.217072 454.721405,294.070618 
	C450.689697,292.910248 446.658020,291.749878 442.154633,290.124695 
	C441.120178,289.417328 440.557434,289.174805 439.994659,288.932281 
	C439.994659,288.932281 440.010162,289.000031 440.029297,288.680420 
	C439.696930,288.223114 439.345428,288.085449 438.993958,287.947784 
	C438.993958,287.947784 438.992401,288.008209 439.047485,287.615906 
	C435.518402,280.466522 435.939362,275.491272 441.818420,270.571808 
	C445.753815,267.278748 450.684174,265.174683 455.567749,262.441589 
	C461.376495,260.926910 466.816406,259.609344 472.177460,258.024872 
	C473.616943,257.599426 475.761139,256.536041 475.959351,255.465179 
	C476.746796,251.210266 476.892365,246.836548 477.275665,242.506851 
	C476.826721,242.479370 476.377808,242.451889 475.928864,242.424423 
	C475.279419,243.667114 474.629974,244.909821 473.671692,246.257446 
	C470.032928,251.447296 465.321381,253.981781 459.250702,254.007416 
	C456.651428,252.959549 454.052155,251.911697 451.233765,250.218170 
	C449.805969,244.950394 448.014008,240.390472 447.513123,235.692886 
	C446.545349,226.616791 446.331757,217.466812 451.275604,209.148056 
M447.977234,286.018127 
	C447.977234,286.018127 447.963867,285.994263 447.942932,286.482300 
	C448.139923,286.775574 448.414948,286.927643 449.425873,287.278473 
	C450.853668,287.470062 452.281464,287.661652 454.554047,287.984650 
	C456.577209,287.505310 459.127808,287.644531 460.535980,286.443909 
	C468.316986,279.809448 472.320465,270.952026 475.041351,261.228760 
	C474.095062,261.048096 473.776367,260.918549 473.471008,260.944672 
	C472.979706,260.986664 472.497253,261.131470 471.262268,261.243469 
	C466.825745,262.507446 462.358093,263.672699 457.960327,265.059509 
	C451.982849,266.944519 446.574402,269.737823 444.052551,275.975983 
	C442.554260,279.682220 442.940796,283.016083 446.996277,285.003571 
	C446.996277,285.003571 447.006500,284.961182 446.998444,285.550934 
	C447.331360,285.712921 447.664246,285.874908 447.977234,286.018127 
z"/>
<path fill="#F80EFE" opacity="1.000000" stroke="none" 
	d="
M454.981262,294.206635 
	C473.858368,291.217072 483.357391,278.096283 488.336548,261.159119 
	C490.326080,254.391418 494.896881,252.229538 500.638550,250.025787 
	C501.000000,250.444443 501.000000,250.888901 501.000000,251.666672 
	C495.262329,253.442017 492.902008,257.397552 490.748688,262.823669 
	C487.734650,270.418732 483.548798,277.790558 478.622131,284.320801 
	C473.027191,291.736847 464.647278,294.747406 454.981262,294.206635 
z"/>
<path fill="#5F1AEC" opacity="1.000000" stroke="none" 
	d="
M229.134903,248.887085 
	C228.849533,248.761383 228.564163,248.635681 227.576324,248.256042 
	C226.150970,248.896530 225.104843,249.683365 224.764771,250.705215 
	C223.671463,253.990295 223.017181,257.424805 221.870773,260.688293 
	C218.933167,269.050842 214.844971,276.237610 204.362122,276.070404 
	C202.746368,275.506165 201.130615,274.941956 199.077789,273.912598 
	C198.121185,273.329895 197.601685,273.212311 197.082169,273.094696 
	C197.082169,273.094696 196.989929,273.191650 196.930573,272.882416 
	C196.558884,272.386841 196.246567,272.200470 195.934250,272.014099 
	C195.934250,272.014099 195.997345,272.001312 195.895477,271.724091 
	C194.843750,270.637543 193.893906,269.828186 192.944046,269.018860 
	C192.944046,269.018860 192.999222,269.001495 193.020676,268.669678 
	C190.943588,264.991638 188.845047,261.645386 186.004608,257.116180 
	C186.140244,259.511780 186.193573,260.453857 186.173264,261.894714 
	C186.099609,266.820770 186.099609,271.248077 186.099609,275.712280 
	C183.636398,276.281464 181.711273,276.726318 179.786148,277.171173 
	C178.955521,276.937378 178.124878,276.703613 177.074905,275.800964 
	C176.193115,266.704437 175.546906,258.275391 174.857437,249.849930 
	C174.671967,247.583328 174.954041,244.885818 171.357590,245.087433 
	C169.334839,244.007370 167.312088,242.927307 165.137802,241.495667 
	C164.986267,241.144089 165.054581,241.146637 165.324692,241.075912 
	C166.052551,240.733215 166.510300,240.461243 167.317139,240.112061 
	C168.131927,240.097870 168.597626,240.160904 169.211884,240.419098 
	C169.631226,240.827164 169.938721,240.926559 170.709961,240.910736 
	C174.923828,241.658340 174.080215,238.892929 174.128876,236.898636 
	C174.441208,224.093292 174.787216,211.288193 174.981491,198.480881 
	C175.058029,193.436035 176.408142,189.697525 182.264038,189.444397 
	C183.005264,189.590988 183.746506,189.737579 184.754791,190.553772 
	C185.387421,195.269226 185.753006,199.315079 186.083954,203.687439 
	C185.930603,205.306015 185.811905,206.598114 185.693207,207.890198 
	C190.837158,202.047623 195.078171,196.021042 203.123917,194.818787 
	C206.260681,195.541046 209.397446,196.263306 212.885666,197.317841 
	C213.237122,197.650101 213.586838,197.852310 213.586838,197.852310 
	C213.901917,198.223053 214.216980,198.593796 214.901932,199.391129 
	C215.271820,199.817703 215.619812,200.042038 215.619812,200.042038 
	C215.619812,200.042038 216.032852,200.012558 216.032852,200.012558 
	C216.032852,200.012558 215.990021,200.022919 215.996033,200.397568 
	C219.144424,207.771515 219.300735,215.059906 216.839294,222.107544 
	C212.265015,235.204742 202.038574,242.240509 188.833481,245.759232 
	C192.516312,251.807495 195.753006,257.378906 199.261505,262.773560 
	C200.933151,265.343903 203.121811,267.578003 205.076279,269.964417 
	C205.076279,269.964417 205.007751,269.992920 205.058945,270.236237 
	C205.389587,270.719360 205.669037,270.959198 206.213547,271.457092 
	C208.326172,271.120392 210.636917,271.014740 211.908066,269.811157 
	C213.630508,268.180298 214.454773,265.638519 215.843079,263.609802 
	C219.538712,258.209503 217.900146,250.280701 224.153244,246.057999 
	C224.360138,245.918274 223.830780,244.688278 223.644623,243.966492 
	C224.359970,243.962753 225.075317,243.959030 226.630737,243.943481 
	C228.825500,244.175705 230.180206,244.419754 231.985580,244.745010 
	C231.985580,242.203522 231.949203,240.238647 231.991562,238.275452 
	C232.251984,226.202271 232.750153,214.128571 232.701401,202.056931 
	C232.679886,196.732407 234.473206,193.666901 239.832169,192.972824 
	C240.680588,193.213150 241.529022,193.453476 242.653259,194.355591 
	C243.085678,199.341919 243.242279,203.666473 243.397980,208.330612 
	C243.460526,209.561523 243.523941,210.452850 243.688660,212.767776 
	C249.360870,204.163834 254.922958,197.284683 265.330383,198.464508 
	C267.313202,199.566345 269.296051,200.668198 271.726685,202.160706 
	C272.475769,202.688477 272.777008,202.825592 273.078247,202.962708 
	C273.078247,202.962708 273.008484,202.986862 273.072632,203.228943 
	C273.446075,203.636566 273.755371,203.802109 274.064697,203.967651 
	C274.064697,203.967651 273.999451,203.991150 274.004089,204.360458 
	C274.475861,210.589478 276.246094,216.704514 275.157715,222.259445 
	C272.272858,236.982895 261.998413,245.212234 247.914398,248.827515 
	C244.124435,249.800369 242.645416,251.475677 242.935211,255.340897 
	C243.443878,262.125427 243.806137,268.930725 243.881577,275.731201 
	C243.900681,277.453674 242.606033,279.190674 241.915070,280.920990 
	C239.679779,280.695587 237.444519,280.470154 234.892761,279.617859 
	C233.936951,270.546021 233.366043,262.094910 232.610168,253.660355 
	C232.421204,251.551498 232.878265,248.578781 229.134903,248.887085 
M260.282196,203.835098 
	C259.399078,203.930038 258.276825,203.708344 257.668732,204.167526 
	C248.869293,210.811783 240.127228,230.407196 244.066101,244.979843 
	C244.721664,245.231155 245.443695,245.805939 246.023163,245.686859 
	C264.317078,241.927902 270.118652,220.673218 264.673859,207.309357 
	C264.117737,205.944427 262.162140,205.149704 260.282196,203.835098 
M186.262253,241.709808 
	C187.058411,241.816895 187.886154,242.122604 188.646088,242.001801 
	C204.033615,239.556122 215.073257,216.271912 207.110580,202.873138 
	C206.320969,201.544449 204.446320,200.860580 202.321915,199.864944 
	C199.716721,202.039139 196.634583,203.840271 194.590622,206.453445 
	C186.647598,216.608459 184.953796,228.464005 186.262253,241.709808 
z"/>
<path fill="#5F1AEC" opacity="1.000000" stroke="none" 
	d="
M10.071827,271.043518 
	C9.212611,270.771729 8.353395,270.499939 7.219512,269.599792 
	C4.942671,246.641830 6.398405,224.483765 9.940167,202.389435 
	C10.664500,197.870895 11.852487,194.784546 17.160057,195.550461 
	C17.984032,195.803864 18.808006,196.057281 19.834366,197.029602 
	C19.765867,203.089462 19.494982,208.430405 19.172113,214.165955 
	C19.120132,215.853043 19.120132,217.145508 19.120132,219.474625 
	C24.159081,212.080368 26.701044,203.797760 36.166267,202.850784 
	C37.230961,203.208939 38.295654,203.567078 39.851742,204.273605 
	C40.561852,204.833069 40.823170,204.943192 41.127102,204.952316 
	C41.127102,204.952316 41.026718,204.968430 41.139618,205.204788 
	C41.864716,205.945801 42.476921,206.450455 43.089119,206.955109 
	C43.089119,206.955109 43.022568,206.918533 43.047405,207.280304 
	C44.617813,212.024643 46.163383,216.407211 47.743149,221.159210 
	C47.902161,222.477890 48.026978,223.427124 48.310436,225.582855 
	C49.871712,222.448608 50.874249,220.252167 52.033878,218.142059 
	C55.748772,211.382309 59.992989,205.290009 68.955208,205.579132 
	C70.093704,206.022903 71.232201,206.466675 72.814331,207.270737 
	C73.487450,207.854630 73.762115,207.976349 74.081955,207.996155 
	C74.081955,207.996155 73.999016,208.002884 74.087547,208.217545 
	C74.479530,208.609970 74.782982,208.787735 75.086441,208.965485 
	C75.086433,208.965500 75.012611,208.980713 75.090012,209.212509 
	C75.468796,209.617920 75.770187,209.791534 76.071571,209.965149 
	C76.071571,209.965149 75.999489,209.985031 76.018196,210.347260 
	C76.726669,213.090256 77.997269,215.468964 78.005867,217.852203 
	C78.043442,228.277832 77.478554,238.707428 77.596085,249.130356 
	C77.686516,257.149933 78.468384,265.161652 78.969719,273.533661 
	C80.157761,273.675903 81.975967,273.856445 82.379013,273.186096 
	C86.740540,265.932220 90.879692,258.544647 95.461304,251.122192 
	C96.475922,251.777466 97.108788,252.504150 97.521568,253.467529 
	C93.730606,260.367676 90.486183,267.240753 86.413528,273.581940 
	C84.968582,275.831726 81.507980,276.786926 78.967545,278.333099 
	C77.434914,277.819855 75.902290,277.306641 74.179001,276.129150 
	C73.001213,270.305542 71.334618,265.168884 71.161980,259.982483 
	C70.743881,247.421921 71.182121,234.835007 70.931023,222.265594 
	C70.845131,217.966263 70.848351,213.145889 65.251183,211.094788 
	C62.913132,213.102417 60.318089,214.789627 59.020592,217.180878 
	C51.776806,230.530975 49.349533,245.009094 49.851173,260.058105 
	C49.974251,263.750275 49.368614,266.780243 44.805916,267.006989 
	C43.956787,266.761902 43.107658,266.516815 42.046913,265.581543 
	C41.548096,256.134460 41.677929,247.338257 40.856197,238.631866 
	C40.037350,229.955917 38.410622,221.341949 36.765499,212.772324 
	C36.489876,211.336594 34.320442,210.264404 32.693062,209.107391 
	C29.603844,213.860703 26.276758,218.291946 24.202778,223.247620 
	C18.841030,236.059189 17.001339,249.701340 15.971959,263.458496 
	C15.684675,267.297882 15.868877,271.494324 10.071827,271.043518 
z"/>
<path fill="#5F1AEC" opacity="1.000000" stroke="none" 
	d="
M119.212761,277.103363 
	C116.622063,276.159485 114.031357,275.215607 110.988586,273.865387 
	C110.054985,273.305023 109.573433,273.151031 109.091888,272.997009 
	C108.713959,272.791931 108.336029,272.586884 107.671417,271.842560 
	C105.510956,267.321808 103.290237,263.460052 101.863060,259.324432 
	C100.495506,255.361588 99.951752,251.114487 99.148529,246.540497 
	C98.668877,229.333176 103.052155,213.832397 111.241684,199.345230 
	C113.833160,194.760971 117.002815,190.680893 122.984451,190.448547 
	C125.604630,192.062149 128.224808,193.675751 131.183350,195.683090 
	C131.521729,196.076828 131.770050,196.141449 131.770050,196.141449 
	C131.770050,196.141449 132.016205,196.067703 132.016205,196.067703 
	C132.016205,196.067703 131.955719,196.092255 131.974808,196.403717 
	C133.022614,197.797882 134.051331,198.880600 135.080063,199.963303 
	C135.080063,199.963303 135.005356,199.990479 135.010803,200.326706 
	C140.267578,210.001343 143.026749,219.991898 143.250763,230.736847 
	C143.282150,232.241974 144.664551,233.718964 145.709869,235.445129 
	C153.278137,237.432205 159.285278,234.353470 165.125290,230.640503 
	C165.682571,230.754959 166.239838,230.869431 167.033478,231.619980 
	C166.328659,233.441788 165.602600,235.325943 164.409454,235.693390 
	C158.990234,237.362320 153.439407,238.603882 147.935928,239.999207 
	C147.935928,239.999207 147.997513,239.955215 147.742661,239.742310 
	C143.904236,238.277267 143.423431,240.312546 142.971283,243.255569 
	C141.971375,249.763702 141.228180,256.435272 139.150955,262.627777 
	C134.986588,275.042297 129.821426,277.873718 119.212761,277.103363 
M132.977890,226.016968 
	C132.977890,226.016968 132.972443,225.982361 132.918442,226.674942 
	C133.409622,227.133575 133.900803,227.592209 134.824875,228.628372 
	C136.960449,229.713516 137.426743,229.622223 137.002228,227.454041 
	C135.678711,220.694153 134.300995,213.906219 132.251785,207.345474 
	C131.394501,204.600769 128.794327,202.400436 126.975586,200.014572 
	C126.975586,200.014572 127.035103,200.035004 126.980362,199.679733 
	C126.889633,199.443771 126.728531,199.275024 126.035240,198.942261 
	C125.752579,198.752808 125.469910,198.563354 124.455544,198.161636 
	C123.695381,198.879639 122.575645,199.457901 122.233475,200.338348 
	C120.028801,206.011337 124.574806,218.453079 129.985855,222.010742 
	C129.985855,222.010742 129.987000,221.974777 129.772858,222.682999 
	C130.529694,223.450638 131.286514,224.218292 131.998978,225.002426 
	C131.998978,225.002426 132.013550,224.957397 132.012344,225.548767 
	C132.345093,225.709015 132.677841,225.869263 132.977890,226.016968 
M121.522896,271.756897 
	C123.577499,270.824982 126.319054,270.441254 127.572723,268.870209 
	C134.549194,260.127563 136.556976,249.636383 136.975647,238.787903 
	C137.011398,237.861771 135.120300,236.861267 133.779419,235.300919 
	C129.125015,231.075089 124.470604,226.849243 119.758034,222.024612 
	C119.106850,221.485352 118.455666,220.946106 117.483315,220.140884 
	C115.011406,233.130615 113.938591,245.602997 116.230751,258.058105 
	C117.061462,262.571930 119.460045,266.797272 121.522896,271.756897 
z"/>
<path fill="#6019EB" opacity="1.000000" stroke="none" 
	d="
M293.127563,274.696625 
	C292.295349,274.403229 291.463165,274.109833 290.318268,273.178772 
	C289.952759,260.302399 289.928680,248.063461 289.813171,235.825394 
	C289.797577,234.168762 291.025818,231.330185 286.890045,232.107239 
	C284.723419,233.759720 282.929291,235.419846 281.135162,237.079956 
	C281.135162,237.079956 281.061859,237.034363 280.854553,237.121567 
	C280.357941,237.342590 280.150665,237.556046 280.025391,237.849136 
	C279.112762,237.516876 278.200104,237.184601 277.077332,236.287537 
	C278.260681,231.093689 282.161041,229.412384 286.217621,228.401535 
	C289.217499,227.653976 290.198425,226.298141 290.279053,223.279602 
	C290.456757,216.623581 291.243103,209.982849 291.388672,203.327301 
	C291.482483,199.036331 293.259857,197.285721 297.426941,197.772934 
	C298.301941,198.073563 299.176941,198.374207 300.425720,199.321014 
	C301.167542,207.683914 301.541901,215.400360 301.899109,223.117584 
	C301.987274,225.021729 301.370239,227.398239 304.678192,226.952698 
	C304.939911,227.279846 305.201660,227.606979 306.047424,228.308334 
	C309.308899,228.543564 311.986298,228.404587 314.663696,228.265594 
	C314.663696,228.265594 314.845581,228.006775 315.018768,227.968491 
	C315.191956,227.930206 315.153931,227.950714 315.612549,228.060242 
	C319.377136,228.943207 320.443268,227.238449 320.850616,224.247711 
	C321.724091,217.834366 322.665253,211.420639 323.889740,205.067017 
	C325.563110,196.384323 325.687225,196.408234 334.201599,195.795364 
	C335.013702,195.999832 335.825836,196.204285 336.604248,196.974335 
	C334.747559,207.303284 332.924561,217.066650 331.192444,227.087402 
	C331.830505,227.212952 332.377655,227.081116 332.944397,226.949615 
	C332.963928,226.949982 332.970978,226.911530 333.256744,226.882263 
	C333.721069,226.783783 333.899597,226.714554 334.079590,226.602661 
	C334.081055,226.559998 334.044830,226.482712 334.044830,226.482712 
	C335.206268,226.638962 336.367737,226.795227 337.854218,227.527191 
	C336.596039,228.817764 334.898590,229.357468 333.460938,230.295441 
	C331.944183,231.285065 329.548889,232.591812 329.477692,233.868256 
	C328.942902,243.455170 328.195831,253.122665 328.937805,262.654205 
	C329.394135,268.516571 332.355438,274.183929 334.337738,280.255127 
	C335.834137,280.072144 337.796295,279.971252 338.426880,279.003082 
	C340.841705,275.295441 342.984955,271.385895 344.938049,267.408508 
	C347.758698,261.664398 350.325592,255.795685 353.000732,249.980133 
	C353.829834,250.245041 354.658966,250.509933 355.709961,251.317535 
	C353.660858,258.167999 351.389832,264.475769 348.988403,271.030151 
	C348.639526,271.920471 348.421051,272.564209 348.003113,273.478943 
	C343.794281,278.547699 341.250183,285.369263 333.075287,284.413879 
	C332.181763,284.112030 331.288269,283.810211 329.998047,282.989075 
	C329.026154,282.343048 328.450958,282.216278 327.875793,282.089539 
	C327.491913,281.769531 327.108032,281.449524 326.481232,280.615356 
	C324.469910,275.139893 321.740051,270.291504 321.140900,265.192780 
	C320.024780,255.694397 320.189941,246.048279 319.719086,236.468704 
	C319.631989,234.696320 321.203430,231.621155 316.829346,231.862442 
	C312.720032,231.665451 308.885956,231.789993 304.631439,231.914093 
	C303.163757,233.017044 301.293854,234.053421 301.197601,235.234329 
	C300.312775,246.093399 299.473694,256.970764 299.193176,267.857544 
	C299.076385,272.390472 297.729065,274.691681 293.127563,274.696625 
z"/>
<path fill="#6019EB" opacity="1.000000" stroke="none" 
	d="
M375.182465,269.854797 
	C377.662750,269.901917 380.173706,269.728088 382.613434,270.067017 
	C384.516449,270.331360 386.330963,271.233154 388.184784,271.851715 
	C388.191071,272.473236 388.197357,273.094757 388.203644,273.716309 
	C385.257385,274.453400 382.330872,275.716766 379.361176,275.828033 
	C370.764648,276.150177 362.150726,276.037598 353.543915,276.008636 
	C352.620056,276.005524 351.698151,275.430817 350.325745,274.938538 
	C349.876129,274.755859 349.837250,274.443390 349.900635,274.087646 
	C350.621277,272.799896 351.278564,271.867889 351.961578,270.966675 
	C351.987335,270.997467 351.952759,270.925659 352.162781,270.855957 
	C352.654083,270.629486 352.806000,270.390442 352.829224,270.021362 
	C352.829895,269.973511 352.913025,269.926208 353.271393,269.916809 
	C354.572479,269.888489 355.515167,269.869507 356.915985,269.923309 
	C360.876404,270.617157 360.960541,268.484283 360.987610,265.864166 
	C361.112518,253.754318 361.172302,241.637543 361.662415,229.539734 
	C362.051575,219.934021 363.046997,210.353424 363.737885,200.759125 
	C363.993927,197.203537 363.933807,197.186523 360.901611,198.007446 
	C357.725403,198.306580 354.549194,198.605713 351.175140,198.337952 
	C354.160156,193.304230 358.905273,192.912918 363.781219,192.862808 
	C364.505157,192.893829 365.229065,192.924866 366.912689,192.961609 
	C373.455353,193.132797 379.038361,193.298264 384.621338,193.463715 
	C385.665680,194.101501 386.709991,194.739304 387.754333,195.377106 
	C387.100342,195.919952 386.446320,196.462799 384.977783,196.963928 
	C382.503998,196.949051 380.835205,197.101105 379.187408,196.976135 
	C375.967346,196.731888 375.012360,198.056747 374.909851,201.303177 
	C374.224762,222.999115 373.266113,244.686417 372.588867,266.382538 
	C372.553650,267.511841 374.277557,268.696106 375.182465,269.854797 
z"/>
<path fill="#601CEC" opacity="1.000000" stroke="none" 
	d="
M397.600006,236.450516 
	C395.740326,235.832626 393.880646,235.214752 390.749176,234.174332 
	C393.113220,232.748947 394.631287,231.833649 396.766235,230.596436 
	C402.526672,230.961746 404.596771,228.770172 404.208740,223.576431 
	C404.014130,220.971420 404.724976,218.302322 404.991241,215.658676 
	C406.406128,201.611053 410.874969,197.477173 424.977783,197.183258 
	C425.474579,197.172928 425.970184,197.105759 426.466339,197.065063 
	C431.829346,198.490936 437.952850,197.907745 442.629272,203.091385 
	C436.972137,207.128311 431.857635,202.996292 426.130890,202.836182 
	C419.794220,201.719147 417.902313,202.914856 417.132690,208.625763 
	C416.384491,214.177597 416.453094,219.849075 415.542633,225.365662 
	C415.039673,228.413376 416.065979,229.652451 418.568390,230.471771 
	C422.566925,229.969543 426.558167,229.176910 430.566803,229.075912 
	C432.907349,229.016907 435.275757,230.063522 437.631622,230.612732 
	C437.593597,231.197815 437.555573,231.782913 437.517548,232.368011 
	C432.783051,232.943527 428.048584,233.519043 422.496582,234.076324 
	C419.650238,234.552017 417.621460,235.045959 416.373535,235.349777 
	C416.373535,246.249390 415.899536,256.804321 416.518494,267.294830 
	C417.045532,276.226868 417.289673,276.585022 408.539886,277.103363 
	C407.606445,276.823578 406.673035,276.543793 405.395752,275.643127 
	C404.233398,261.395081 403.414886,247.767914 402.596405,234.140732 
	C402.278778,234.106430 401.961182,234.072128 401.643555,234.037811 
	C401.404541,234.741852 401.165527,235.445892 400.926514,236.149933 
	C400.062836,236.263138 399.199127,236.376343 397.934387,236.447876 
	C397.533295,236.406204 397.600006,236.450516 397.600006,236.450516 
z"/>
<path fill="#F80EFE" opacity="1.000000" stroke="none" 
	d="
M242.187683,281.107849 
	C242.606033,279.190674 243.900681,277.453674 243.881577,275.731201 
	C243.806137,268.930725 243.443878,262.125427 242.935211,255.340897 
	C242.645416,251.475677 244.124435,249.800369 247.914398,248.827515 
	C261.998413,245.212234 272.272858,236.982895 275.157715,222.259445 
	C276.246094,216.704514 274.475861,210.589478 274.025635,204.333282 
	C275.390320,206.019913 277.302979,207.935455 277.979889,210.217575 
	C280.012817,217.071136 278.504150,223.721588 275.505615,230.714294 
	C274.763245,232.197968 274.341003,233.129974 273.918762,234.061981 
	C267.642120,242.565704 259.508362,248.124695 249.047897,250.354568 
	C247.805756,250.619370 246.175354,253.005081 246.160416,254.422791 
	C246.083237,261.741943 246.450424,269.066864 246.712402,276.388000 
	C246.820190,279.399719 246.419144,281.859283 242.187683,281.107849 
z"/>
<path fill="#12F2FE" opacity="1.000000" stroke="none" 
	d="
M16.886971,195.326050 
	C11.852487,194.784546 10.664500,197.870895 9.940167,202.389435 
	C6.398405,224.483765 4.942671,246.641830 6.941477,269.400146 
	C5.968219,268.410553 4.258814,267.051514 4.139581,265.564941 
	C2.403915,243.925156 3.691426,222.407806 7.408018,201.039627 
	C8.676215,193.748260 9.060126,193.627167 16.886971,195.326050 
z"/>
<path fill="#F70BFE" opacity="1.000000" stroke="none" 
	d="
M375.258148,269.404053 
	C374.277557,268.696106 372.553650,267.511841 372.588867,266.382538 
	C373.266113,244.686417 374.224762,222.999115 374.909851,201.303177 
	C375.012360,198.056747 375.967346,196.731888 379.187408,196.976135 
	C380.835205,197.101105 382.503998,196.949051 384.617615,197.006210 
	C377.872925,199.556488 378.224579,199.568192 377.941895,208.065735 
	C377.266449,228.368042 376.226562,248.658203 375.258148,269.404053 
z"/>
<path fill="#16F0FE" opacity="1.000000" stroke="none" 
	d="
M360.949341,198.436371 
	C363.933807,197.186523 363.993927,197.203537 363.737885,200.759125 
	C363.046997,210.353424 362.051575,219.934021 361.662415,229.539734 
	C361.172302,241.637543 361.112518,253.754318 360.987610,265.864166 
	C360.960541,268.484283 360.876404,270.617157 357.212646,269.593079 
	C357.340546,264.847717 357.629883,260.505341 357.959534,255.757019 
	C357.968384,254.002396 357.936951,252.653702 357.905518,251.305008 
	C358.936005,233.825104 359.966522,216.345215 360.949341,198.436371 
z"/>
<path fill="#F412FE" opacity="1.000000" stroke="none" 
	d="
M205.171326,269.605713 
	C203.121811,267.578003 200.933151,265.343903 199.261505,262.773560 
	C195.753006,257.378906 192.516312,251.807495 188.833481,245.759232 
	C202.038574,242.240509 212.265015,235.204742 216.839294,222.107544 
	C219.300735,215.059906 219.144424,207.771515 215.987244,200.377350 
	C217.647125,203.307861 220.432999,206.513931 220.805054,209.979156 
	C222.457840,225.372910 212.695297,239.557220 197.522446,244.885452 
	C195.692947,245.527893 193.852661,246.139633 191.591080,246.911041 
	C196.309372,254.617462 200.787872,261.932251 205.171326,269.605713 
z"/>
<path fill="#F80EFE" opacity="1.000000" stroke="none" 
	d="
M10.336822,271.330200 
	C15.868877,271.494324 15.684675,267.297882 15.971959,263.458496 
	C17.001339,249.701340 18.841030,236.059189 24.202778,223.247620 
	C26.276758,218.291946 29.603844,213.860703 32.790741,209.348343 
	C33.432232,210.139786 33.643036,210.773422 33.853836,211.407074 
	C26.116550,221.288467 23.266956,233.073212 21.079702,245.026382 
	C19.825754,251.879120 19.276325,258.860016 18.383863,265.779907 
	C17.552788,272.223846 17.537710,272.221893 10.336822,271.330200 
z"/>
<path fill="#11F3FE" opacity="1.000000" stroke="none" 
	d="
M122.697395,190.299774 
	C117.002815,190.680893 113.833160,194.760971 111.241684,199.345230 
	C103.052155,213.832397 98.668877,229.333176 98.821548,246.544678 
	C97.957504,247.032471 97.523033,247.064301 97.082321,247.088043 
	C97.076088,247.079987 97.098717,247.101486 97.098717,247.101486 
	C95.311707,229.046127 100.357101,212.617401 109.279938,197.215866 
	C113.168365,190.504120 116.830070,188.809494 122.697395,190.299774 
z"/>
<path fill="#1CF5FE" opacity="1.000000" stroke="none" 
	d="
M65.593292,211.099411 
	C70.848351,213.145889 70.845131,217.966263 70.931023,222.265594 
	C71.182121,234.835007 70.743881,247.421921 71.161980,259.982483 
	C71.334618,265.168884 73.001213,270.305542 73.949158,275.872009 
	C72.269127,272.869537 69.412170,269.532074 69.204819,266.037323 
	C68.439636,253.141479 68.695908,240.188660 68.256561,227.267868 
	C68.095833,222.540939 67.066429,217.843552 66.124466,212.571838 
	C65.763222,211.701843 65.689110,211.397980 65.593292,211.099411 
z"/>
<path fill="#F80EFE" opacity="1.000000" stroke="none" 
	d="
M65.251183,211.094788 
	C65.689110,211.397980 65.763222,211.701843 65.865013,212.239029 
	C58.416725,220.288651 55.948193,230.360794 54.063366,240.460022 
	C52.758183,247.453430 52.602539,254.676590 52.159740,261.811127 
	C51.778381,267.955658 51.919994,267.964447 45.088371,267.291260 
	C49.368614,266.780243 49.974251,263.750275 49.851173,260.058105 
	C49.349533,245.009094 51.776806,230.530975 59.020592,217.180878 
	C60.318089,214.789627 62.913132,213.102417 65.251183,211.094788 
z"/>
<path fill="#F40EFE" opacity="1.000000" stroke="none" 
	d="
M78.942780,273.176880 
	C78.468384,265.161652 77.686516,257.149933 77.596085,249.130356 
	C77.478554,238.707428 78.043442,228.277832 78.005867,217.852203 
	C77.997269,215.468964 76.726669,213.090256 76.042572,210.318893 
	C77.681427,213.089676 80.544914,216.186691 80.714249,219.424622 
	C81.198036,228.675613 80.542252,237.983292 80.420624,247.269775 
	C80.320747,254.895798 80.343918,262.523438 80.326706,270.784607 
	C79.874832,272.004852 79.408813,272.590881 78.942780,273.176880 
z"/>
<path fill="#F40EFE" opacity="1.000000" stroke="none" 
	d="
M334.191956,279.938843 
	C332.355438,274.183929 329.394135,268.516571 328.937805,262.654205 
	C328.195831,253.122665 328.942902,243.455170 329.477692,233.868256 
	C329.548889,232.591812 331.944183,231.285065 333.460938,230.295441 
	C334.898590,229.357468 336.596039,228.817764 338.380615,227.797180 
	C339.522064,227.879898 340.462158,228.268341 341.332397,228.627945 
	C341.163483,229.278076 341.138580,229.568970 341.078857,229.576294 
	C332.409271,230.641525 331.764008,236.758118 331.440704,243.789474 
	C330.909393,255.343643 330.720978,266.756073 335.040466,278.341949 
	C334.780243,279.263031 334.486115,279.600922 334.191956,279.938843 
z"/>
<path fill="#1CF5FE" opacity="1.000000" stroke="none" 
	d="
M182.063507,189.179459 
	C176.408142,189.697525 175.058029,193.436035 174.981491,198.480881 
	C174.787216,211.288193 174.441208,224.093292 174.128876,236.898636 
	C174.080215,238.892929 174.923828,241.658340 170.632141,240.725769 
	C170.127335,240.542496 170.031189,240.153412 170.398865,239.909042 
	C170.823608,237.592056 170.880676,235.519440 170.920624,233.466248 
	C170.903519,233.485657 170.872681,233.527252 170.872681,233.527252 
	C171.295227,221.085083 171.577606,208.635941 172.195816,196.203506 
	C172.536499,189.352371 174.474152,188.103546 182.063507,189.179459 
z"/>
<path fill="#11F3FE" opacity="1.000000" stroke="none" 
	d="
M239.605133,192.684296 
	C234.473206,193.666901 232.679886,196.732407 232.701401,202.056931 
	C232.750153,214.128571 232.251984,226.202271 231.991562,238.275452 
	C231.949203,240.238647 231.985580,242.203522 231.985580,244.745010 
	C230.180206,244.419754 228.825500,244.175705 227.165253,243.892502 
	C227.591904,242.296753 228.907684,240.761047 228.964340,239.180206 
	C229.431732,226.139389 229.522751,213.084702 230.026855,200.045761 
	C230.304810,192.856674 231.519424,192.090012 239.605133,192.684296 
z"/>
<path fill="#16F0FE" opacity="1.000000" stroke="none" 
	d="
M34.043110,211.790359 
	C33.643036,210.773422 33.432232,210.139786 33.123756,209.265182 
	C34.320442,210.264404 36.489876,211.336594 36.765499,212.772324 
	C38.410622,221.341949 40.037350,229.955917 40.856197,238.631866 
	C41.677929,247.338257 41.548096,256.134460 41.810955,265.343597 
	C38.148872,265.855621 39.184261,263.095276 39.045280,261.141479 
	C38.042900,247.050110 37.145653,232.950821 36.047443,218.867111 
	C35.870857,216.602539 34.858425,214.403168 34.043110,211.790359 
z"/>
<path fill="#F80EFE" opacity="1.000000" stroke="none" 
	d="
M293.394043,274.851135 
	C297.729065,274.691681 299.076385,272.390472 299.193176,267.857544 
	C299.473694,256.970764 300.312775,246.093399 301.197601,235.234329 
	C301.293854,234.053421 303.163757,233.017044 304.645264,232.160248 
	C305.079529,232.406845 305.145111,232.895157 305.145111,232.895157 
	C304.475098,237.754700 303.584137,242.596298 303.187500,247.478043 
	C302.608582,254.603439 302.335876,261.755554 302.023865,268.900269 
	C301.730255,275.623413 300.383514,276.648590 293.394043,274.851135 
z"/>
<path fill="#F70BFE" opacity="1.000000" stroke="none" 
	d="
M408.777039,277.378174 
	C417.289673,276.585022 417.045532,276.226868 416.518494,267.294830 
	C415.899536,256.804321 416.373535,246.249390 416.373535,235.349777 
	C417.621460,235.045959 419.650238,234.552017 422.013428,234.073593 
	C417.478394,235.687866 418.029083,239.578781 418.229675,243.471527 
	C418.646973,251.569824 418.735413,259.687103 419.254669,267.777588 
	C419.941406,278.476715 419.721802,278.799347 408.777039,277.378174 
z"/>
<path fill="#12F2FE" opacity="1.000000" stroke="none" 
	d="
M273.996826,234.411407 
	C274.341003,233.129974 274.763245,232.197968 275.367188,231.073486 
	C278.707489,229.534607 282.041626,228.477203 284.946564,226.713089 
	C286.287292,225.898911 287.399994,223.764404 287.563202,222.123810 
	C288.185059,215.873337 288.203308,209.564148 288.777252,203.307190 
	C289.431458,196.174911 289.584656,196.188965 297.231750,197.536407 
	C293.259857,197.285721 291.482483,199.036331 291.388672,203.327301 
	C291.243103,209.982849 290.456757,216.623581 290.279053,223.279602 
	C290.198425,226.298141 289.217499,227.653976 286.217621,228.401535 
	C282.161041,229.412384 278.260681,231.093689 276.802704,236.036713 
	C275.850433,235.820724 274.962677,235.290771 273.996826,234.411407 
z"/>
<path fill="#F40EFE" opacity="1.000000" stroke="none" 
	d="
M119.464340,277.342010 
	C129.821426,277.873718 134.986588,275.042297 139.150955,262.627777 
	C141.228180,256.435272 141.971375,249.763702 142.971283,243.255569 
	C143.423431,240.312546 143.904236,238.277267 147.769958,239.768509 
	C147.313736,241.455734 146.254868,242.828156 145.891800,244.364944 
	C144.217804,251.450943 143.412521,258.817902 141.033707,265.644318 
	C137.230911,276.557037 131.169525,279.530640 119.464340,277.342010 
z"/>
<path fill="#12F2FE" opacity="1.000000" stroke="none" 
	d="
M317.104645,232.183975 
	C321.203430,231.621155 319.631989,234.696320 319.719086,236.468704 
	C320.189941,246.048279 320.024780,255.694397 321.140900,265.192780 
	C321.740051,270.291504 324.469910,275.139893 326.263306,280.477112 
	C323.878082,276.548340 319.988251,272.451080 319.350189,267.898102 
	C317.776794,256.670807 317.695953,245.234360 317.035828,233.236038 
	C317.056610,232.590073 317.104645,232.183975 317.104645,232.183975 
z"/>
<path fill="#11F3FE" opacity="1.000000" stroke="none" 
	d="
M486.267578,209.577621 
	C484.496063,211.252228 481.980621,212.297012 481.165741,214.107300 
	C477.510925,222.226395 474.485840,230.627243 470.911224,238.785187 
	C469.742950,241.451355 467.686798,243.761887 465.813080,246.052063 
	C465.506836,246.426392 464.036774,245.848511 463.376251,245.232666 
	C464.160309,243.965988 464.672729,243.177399 465.185120,242.388824 
	C469.524139,232.735489 474.049469,223.159714 478.113892,213.392120 
	C479.831207,209.265152 482.065521,207.654160 486.267578,209.577621 
z"/>
<path fill="#16F0FE" opacity="1.000000" stroke="none" 
	d="
M426.037109,196.927002 
	C425.970184,197.105759 425.474579,197.172928 424.977783,197.183258 
	C410.874969,197.477173 406.406128,201.611053 404.991241,215.658676 
	C404.724976,218.302322 404.014130,220.971420 404.208740,223.576431 
	C404.596771,228.770172 402.526672,230.961746 397.138641,230.453918 
	C401.231049,228.860580 401.431610,225.046555 401.713348,221.162582 
	C401.953064,217.857529 402.345825,214.548965 402.917694,211.285217 
	C405.154388,198.521042 412.000305,194.183075 426.037109,196.927002 
z"/>
<path fill="#11F3FE" opacity="1.000000" stroke="none" 
	d="
M450.864807,209.078186 
	C446.331757,217.466812 446.545349,226.616791 447.513123,235.692886 
	C448.014008,240.390472 449.805969,244.950394 450.993317,249.990753 
	C449.334930,247.627228 447.004395,245.033752 446.188477,242.029007 
	C443.545654,232.296188 443.698151,222.390533 446.375610,212.667374 
	C446.783630,211.185669 449.048157,210.215225 450.864807,209.078186 
z"/>
<path fill="#11F3FE" opacity="1.000000" stroke="none" 
	d="
M333.909546,195.486969 
	C325.687225,196.408234 325.563110,196.384323 323.889740,205.067017 
	C322.665253,211.420639 321.724091,217.834366 320.850616,224.247711 
	C320.443268,227.238449 319.377136,228.943207 315.808411,227.908783 
	C315.545654,227.647781 315.626556,227.159119 315.626556,227.159119 
	C316.440216,225.759476 317.703918,224.445435 317.989258,222.945328 
	C319.193970,216.611069 319.891876,210.177536 321.178101,203.862366 
	C323.055145,194.646393 323.584991,194.411011 333.909546,195.486969 
z"/>
<path fill="#F412FE" opacity="1.000000" stroke="none" 
	d="
M493.919434,247.450195 
	C493.217285,248.300705 492.640808,248.769333 491.788147,249.462479 
	C491.788147,236.627502 491.788147,224.267273 491.702301,211.437378 
	C492.640686,212.563583 494.538208,214.154373 494.547546,215.756165 
	C494.608521,226.192230 494.259766,236.630676 493.919434,247.450195 
z"/>
<path fill="#16F0FE" opacity="1.000000" stroke="none" 
	d="
M223.559357,243.736908 
	C223.830780,244.688278 224.360138,245.918274 224.153244,246.057999 
	C217.900146,250.280701 219.538712,258.209503 215.843079,263.609802 
	C214.454773,265.638519 213.630508,268.180298 211.908066,269.811157 
	C210.636917,271.014740 208.326172,271.120392 206.355148,271.394958 
	C206.405869,270.975098 206.576279,270.869415 206.742905,270.757660 
	C212.453491,266.782349 214.276276,260.425751 215.868927,254.336945 
	C217.112030,249.584442 219.657578,246.129166 222.876190,242.841537 
	C222.909866,242.807129 223.184357,242.944885 223.284973,243.057281 
	C223.387573,243.171890 223.414200,243.354507 223.559357,243.736908 
z"/>
<path fill="#11F3FE" opacity="1.000000" stroke="none" 
	d="
M334.337738,280.255127 
	C334.486115,279.600922 334.780243,279.263031 335.195862,278.732971 
	C339.423309,270.169495 343.503357,261.785248 347.653870,253.436096 
	C348.657928,251.416306 348.794952,248.153931 352.777405,249.712051 
	C350.325592,255.795685 347.758698,261.664398 344.938049,267.408508 
	C342.984955,271.385895 340.841705,275.295441 338.426880,279.003082 
	C337.796295,279.971252 335.834137,280.072144 334.337738,280.255127 
z"/>
<path fill="#F412FE" opacity="1.000000" stroke="none" 
	d="
M204.640732,276.303528 
	C214.844971,276.237610 218.933167,269.050842 221.870773,260.688293 
	C223.017181,257.424805 223.671463,253.990295 224.764771,250.705215 
	C225.104843,249.683365 226.150970,248.896530 227.158157,248.046478 
	C227.035828,256.695740 224.302505,264.597382 219.404099,271.570862 
	C215.960159,276.473724 210.828751,278.028534 204.640732,276.303528 
z"/>
<path fill="#F70BFE" opacity="1.000000" stroke="none" 
	d="
M333.999664,226.164703 
	C334.044830,226.482712 334.081055,226.559998 333.996399,226.376099 
	C333.598145,226.431992 333.284546,226.671753 332.970978,226.911530 
	C332.970978,226.911530 332.963928,226.949982 332.640198,226.923462 
	C331.911530,226.874619 331.506531,226.852310 331.101562,226.829987 
	C332.924561,217.066650 334.747559,207.303284 336.783997,197.234009 
	C340.864075,196.825317 339.113098,199.423859 338.814758,201.024109 
	C337.269562,209.312271 335.588318,217.575073 333.999664,226.164703 
z"/>
<path fill="#11F3FE" opacity="1.000000" stroke="none" 
	d="
M400.911438,236.688843 
	C401.165527,235.445892 401.404541,234.741852 401.643555,234.037811 
	C401.961182,234.072128 402.278778,234.106430 402.596405,234.140732 
	C403.414886,247.767914 404.233398,261.395081 405.075409,275.450378 
	C404.079315,274.286560 402.260193,272.739014 402.168854,271.095490 
	C401.542328,259.817474 401.277618,248.519379 400.911438,236.688843 
z"/>
<path fill="#F40EFE" opacity="1.000000" stroke="none" 
	d="
M418.923584,230.339386 
	C416.065979,229.652451 415.039673,228.413376 415.542633,225.365662 
	C416.453094,219.849075 416.384491,214.177597 417.132690,208.625763 
	C417.902313,202.914856 419.794220,201.719147 425.747070,202.738953 
	C424.369171,204.067139 421.396088,204.997620 421.233246,206.283813 
	C420.229584,214.213638 419.859528,222.223648 418.923584,230.339386 
z"/>
<path fill="#11F3FE" opacity="1.000000" stroke="none" 
	d="
M287.262543,232.114899 
	C291.025818,231.330185 289.797577,234.168762 289.813171,235.825394 
	C289.928680,248.063461 289.952759,260.302399 290.030151,273.016357 
	C289.019623,271.521393 287.147339,269.575775 287.088531,267.576813 
	C286.763031,256.519012 286.879272,245.448212 286.643036,233.844940 
	C286.715485,232.910309 286.989014,232.512604 287.262543,232.114899 
z"/>
<path fill="#12F2FE" opacity="1.000000" stroke="none" 
	d="
M171.457001,245.479614 
	C174.954041,244.885818 174.671967,247.583328 174.857437,249.849930 
	C175.546906,258.275391 176.193115,266.704437 176.852112,275.559387 
	C175.776047,274.686920 173.912292,273.473267 173.759964,272.073395 
	C172.812210,263.362701 172.247879,254.610336 171.457001,245.479614 
z"/>
<path fill="#F412FE" opacity="1.000000" stroke="none" 
	d="
M465.103333,241.923950 
	C464.672729,243.177399 464.160309,243.965988 463.386780,244.865753 
	C462.385162,233.662125 461.644653,222.347336 460.900696,210.570663 
	C461.808136,211.698868 463.387482,213.235992 463.518341,214.887848 
	C464.218658,223.729156 464.557648,232.599075 465.103333,241.923950 
z"/>
<path fill="#16F0FE" opacity="1.000000" stroke="none" 
	d="
M455.169312,262.538574 
	C450.684174,265.174683 445.753815,267.278748 441.818420,270.571808 
	C435.939362,275.491272 435.518402,280.466522 439.077637,287.614014 
	C433.122314,283.498718 432.381592,277.250000 437.171661,271.388153 
	C441.625610,265.937653 447.543640,262.848450 454.658417,261.454132 
	C455.105499,262.061066 455.137390,262.299835 455.169312,262.538574 
z"/>
<path fill="#12F2FE" opacity="1.000000" stroke="none" 
	d="
M78.969727,273.533661 
	C79.408813,272.590881 79.874832,272.004852 80.427582,271.250946 
	C84.596031,263.975830 88.640381,256.846619 92.792671,249.780838 
	C93.574623,248.450195 93.009209,245.020981 96.758553,247.048401 
	C97.098717,247.101486 97.076088,247.079987 96.992188,247.413666 
	C96.298714,248.896103 95.689140,250.044846 95.079559,251.193588 
	C90.879692,258.544647 86.740540,265.932220 82.379013,273.186096 
	C81.975967,273.856445 80.157761,273.675903 78.969727,273.533661 
z"/>
<path fill="#12F2FE" opacity="1.000000" stroke="none" 
	d="
M229.202240,249.318878 
	C232.878265,248.578781 232.421204,251.551498 232.610168,253.660355 
	C233.366043,262.094910 233.936951,270.546021 234.608948,279.381409 
	C230.665695,279.838898 231.402115,276.629089 231.197144,274.434143 
	C230.429886,266.217957 229.892883,257.980286 229.202240,249.318878 
z"/>
<path fill="#F412FE" opacity="1.000000" stroke="none" 
	d="
M145.421585,235.208969 
	C144.664551,233.718964 143.282150,232.241974 143.250763,230.736847 
	C143.026749,219.991898 140.267578,210.001343 135.035339,200.295441 
	C137.168686,203.053192 140.268570,205.912140 141.199417,209.357162 
	C143.379700,217.426346 144.520599,225.776398 145.957458,234.558960 
	C145.832626,235.105179 145.421585,235.208969 145.421585,235.208969 
z"/>
<path fill="#F412FE" opacity="1.000000" stroke="none" 
	d="
M79.192734,278.560669 
	C81.507980,276.786926 84.968582,275.831726 86.413528,273.581940 
	C90.486183,267.240753 93.730606,260.367676 97.608276,253.775177 
	C98.193771,255.233643 98.472481,256.621185 98.751190,258.008728 
	C95.492844,263.688995 92.286743,269.400085 88.957497,275.038483 
	C86.793617,278.703247 83.717804,280.389465 79.192734,278.560669 
z"/>
<path fill="#F21AFE" opacity="1.000000" stroke="none" 
	d="
M304.707581,226.491028 
	C301.370239,227.398239 301.987274,225.021729 301.899109,223.117584 
	C301.541901,215.400360 301.167542,207.683914 300.711487,199.527679 
	C301.746948,200.595535 303.725616,202.036850 303.848083,203.621597 
	C304.423553,211.069275 304.489288,218.556335 304.707581,226.491028 
z"/>
<path fill="#16F0FE" opacity="1.000000" stroke="none" 
	d="
M68.675156,205.388382 
	C59.992989,205.290009 55.748772,211.382309 52.033878,218.142059 
	C50.874249,220.252167 49.871712,222.448608 48.310436,225.582855 
	C48.026978,223.427124 47.902161,222.477890 47.854786,220.877380 
	C48.325535,219.149277 48.718849,218.072418 49.112156,216.995575 
	C51.554012,213.901062 53.705769,210.506592 56.513828,207.790710 
	C59.759754,204.651337 63.844776,203.351089 68.675156,205.388382 
z"/>
<path fill="#12F2FE" opacity="1.000000" stroke="none" 
	d="
M455.567749,262.441589 
	C455.137390,262.299835 455.105499,262.061066 455.037964,261.462799 
	C459.708618,259.766205 464.369781,258.228149 469.136169,257.158936 
	C472.628601,256.375488 474.285278,254.602585 474.060425,250.295197 
	C474.052612,248.409439 474.016571,247.280975 473.980530,246.152527 
	C474.629974,244.909821 475.279419,243.667114 475.928864,242.424423 
	C476.377808,242.451889 476.826721,242.479370 477.275665,242.506851 
	C476.892365,246.836548 476.746796,251.210266 475.959351,255.465179 
	C475.761139,256.536041 473.616943,257.599426 472.177460,258.024872 
	C466.816406,259.609344 461.376495,260.926910 455.567749,262.441589 
z"/>
<path fill="#16F0FE" opacity="1.000000" stroke="none" 
	d="
M98.916962,258.416718 
	C98.472481,256.621185 98.193771,255.233643 97.828354,253.538467 
	C97.108788,252.504150 96.475922,251.777466 95.461304,251.122192 
	C95.689140,250.044846 96.298714,248.896103 96.998428,247.421738 
	C97.523033,247.064301 97.957504,247.032471 98.718964,246.996490 
	C99.951752,251.114487 100.495506,255.361588 101.863060,259.324432 
	C103.290237,263.460052 105.510956,267.321808 107.435249,271.608582 
	C104.684753,267.550812 101.883743,263.187744 98.916962,258.416718 
z"/>
<path fill="#16F0FE" opacity="1.000000" stroke="none" 
	d="
M265.023865,198.319962 
	C254.922958,197.284683 249.360870,204.163834 243.688660,212.767776 
	C243.523941,210.452850 243.460526,209.561523 243.584351,208.113129 
	C244.542908,206.372742 245.314224,205.189407 246.085526,204.006088 
	C251.067612,198.136810 257.571289,197.129745 265.023865,198.319962 
z"/>
<path fill="#F70BFE" opacity="1.000000" stroke="none" 
	d="
M357.599457,251.237167 
	C357.936951,252.653702 357.968384,254.002396 357.723694,256.001556 
	C355.936066,261.076752 354.424530,265.501465 352.913025,269.926208 
	C352.913025,269.926208 352.829895,269.973511 352.595581,270.036926 
	C352.091766,270.309326 351.955597,270.584442 351.952759,270.925659 
	C351.952759,270.925659 351.987335,270.997467 351.608185,270.953644 
	C350.525635,270.867706 349.822235,270.825623 349.118835,270.783539 
	C351.389832,264.475769 353.660858,258.167999 355.990082,251.496765 
	C356.463348,251.145279 356.878387,251.157303 357.599457,251.237167 
z"/>
<path fill="#11F3FE" opacity="1.000000" stroke="none" 
	d="
M203.023163,194.522263 
	C195.078171,196.021042 190.837158,202.047623 185.693207,207.890198 
	C185.811905,206.598114 185.930603,205.306015 186.315308,203.558319 
	C187.128983,202.291733 187.676651,201.480774 188.224335,200.669800 
	C192.465057,197.019531 196.399902,192.671585 203.023163,194.522263 
z"/>
<path fill="#12F2FE" opacity="1.000000" stroke="none" 
	d="
M35.968624,202.598053 
	C26.701044,203.797760 24.159081,212.080368 19.120132,219.474625 
	C19.120132,217.145508 19.120132,215.853043 19.406082,213.987915 
	C20.710676,211.636017 21.729319,209.856796 22.747963,208.077560 
	C26.328011,204.438004 29.857819,200.684296 35.968624,202.598053 
z"/>
<path fill="#F21AFE" opacity="1.000000" stroke="none" 
	d="
M170.584824,233.358109 
	C170.872681,233.527252 170.903519,233.485657 170.608490,233.693985 
	C168.982559,235.031845 167.456696,236.005341 166.385925,237.343094 
	C165.607971,238.314957 165.431854,239.768585 164.998444,241.044998 
	C165.009460,241.082596 165.054581,241.146637 165.054581,241.146637 
	C165.054581,241.146637 164.986267,241.144089 164.952759,241.150024 
	C164.796158,241.262238 164.604950,241.351181 164.572052,241.480408 
	C164.546860,241.579376 164.721649,241.729233 164.807495,241.856445 
	C164.565033,240.930099 164.322571,240.003754 164.206360,239.559753 
	C158.880829,239.854950 153.753433,240.139175 148.280975,240.211304 
	C153.439407,238.603882 158.990234,237.362320 164.409454,235.693390 
	C165.602600,235.325943 166.328659,233.441788 167.332916,231.929108 
	C168.363007,232.131088 169.329987,232.660019 170.584824,233.358109 
z"/>
<path fill="#F21AFE" opacity="1.000000" stroke="none" 
	d="
M349.837250,274.443390 
	C349.837250,274.443390 349.876129,274.755859 349.898254,274.911774 
	C348.020294,277.745087 346.399933,280.691254 344.150360,283.032928 
	C341.242249,286.060059 337.436737,286.198120 333.322266,284.630737 
	C341.250183,285.369263 343.794281,278.547699 348.232086,273.593140 
	C349.052734,273.772003 349.444977,274.107697 349.837250,274.443390 
z"/>
<path fill="#F21AFE" opacity="1.000000" stroke="none" 
	d="
M180.064896,277.483398 
	C181.711273,276.726318 183.636398,276.281464 186.099609,275.712280 
	C186.099609,271.248077 186.099609,266.820770 186.419586,262.105042 
	C187.492218,263.197052 188.244888,264.577515 188.997559,265.957977 
	C188.950607,267.275665 188.842224,268.594482 188.866714,269.910858 
	C189.022781,278.300568 188.956650,278.370544 180.064896,277.483398 
z"/>
<path fill="#F412FE" opacity="1.000000" stroke="none" 
	d="
M22.732765,207.529739 
	C21.729319,209.856796 20.710676,211.636017 19.458065,213.593292 
	C19.494982,208.430405 19.765867,203.089462 20.051834,197.269714 
	C20.997066,198.215134 22.372030,199.533569 22.742352,201.090897 
	C23.183857,202.947632 22.764166,205.009125 22.732765,207.529739 
z"/>
<path fill="#1CF5FE" opacity="1.000000" stroke="none" 
	d="
M363.867645,192.589569 
	C358.905273,192.912918 354.160156,193.304230 350.874329,198.073303 
	C348.187195,198.170197 347.099487,196.969666 349.514374,195.216736 
	C353.795349,192.109161 358.497375,190.053726 363.867645,192.589569 
z"/>
<path fill="#1CF5FE" opacity="1.000000" stroke="none" 
	d="
M145.709869,235.445129 
	C145.421585,235.208969 145.832626,235.105179 146.021027,235.007751 
	C150.827591,233.634338 155.438568,232.331406 160.067917,231.097458 
	C161.627884,230.681656 163.234573,230.441040 164.972595,230.380432 
	C159.285278,234.353470 153.278137,237.432205 145.709869,235.445129 
z"/>
<path fill="#F21AFE" opacity="1.000000" stroke="none" 
	d="
M188.176971,200.240936 
	C187.676651,201.480774 187.128983,202.291733 186.349945,203.231827 
	C185.753006,199.315079 185.387421,195.269226 185.050613,190.791260 
	C186.015961,191.565048 187.393112,192.645569 187.780792,194.007706 
	C188.298920,195.828110 188.049423,197.867004 188.176971,200.240936 
z"/>
<path fill="#F21AFE" opacity="1.000000" stroke="none" 
	d="
M246.016083,203.570435 
	C245.314224,205.189407 244.542908,206.372742 243.585236,207.773544 
	C243.242279,203.666473 243.085678,199.341919 242.924255,194.558670 
	C243.843979,195.322372 245.163376,196.422043 245.591339,197.798798 
	C246.105957,199.454300 245.862122,201.345566 246.016083,203.570435 
z"/>
<path fill="#F80EFE" opacity="1.000000" stroke="none" 
	d="
M473.671661,246.257431 
	C474.016571,247.280975 474.052612,248.409439 474.007629,249.858154 
	C469.924622,253.889709 465.430847,255.976044 459.545929,254.224518 
	C465.321381,253.981781 470.032928,251.447296 473.671661,246.257431 
z"/>
<path fill="#F21AFE" opacity="1.000000" stroke="none" 
	d="
M48.952808,216.591400 
	C48.718849,218.072418 48.325535,219.149277 47.820587,220.507965 
	C46.163383,216.407211 44.617813,212.024643 43.081100,207.262787 
	C44.991119,209.984756 46.892288,213.085983 48.952808,216.591400 
z"/>
<path fill="#1CF5FE" opacity="1.000000" stroke="none" 
	d="
M384.340637,193.289978 
	C379.038361,193.298264 373.455353,193.132797 367.453003,192.901443 
	C372.709076,192.929108 378.384491,193.022675 384.340637,193.289978 
z"/>
<path fill="#16F0FE" opacity="1.000000" stroke="none" 
	d="
M189.312958,266.214569 
	C188.244888,264.577515 187.492218,263.197052 186.493225,261.606293 
	C186.193573,260.453857 186.140244,259.511780 186.004608,257.116180 
	C188.845047,261.645386 190.943588,264.991638 193.008194,268.695740 
	C191.858963,268.192810 190.743668,267.332001 189.312958,266.214569 
z"/>
<path fill="#5F1CEC" opacity="1.000000" stroke="none" 
	d="
M316.829346,231.862442 
	C317.104645,232.183975 317.056610,232.590073 316.991791,232.784012 
	C313.295563,232.975952 309.664154,232.973953 305.588928,232.933563 
	C305.145111,232.895157 305.079529,232.406845 305.065735,232.160690 
	C308.885956,231.789993 312.720032,231.665451 316.829346,231.862442 
z"/>
<path fill="#5F1CEC" opacity="1.000000" stroke="none" 
	d="
M286.890045,232.107239 
	C286.989014,232.512604 286.715485,232.910309 286.336670,233.531387 
	C284.743530,234.786392 283.255646,235.818054 281.451477,236.964844 
	C282.929291,235.419846 284.723419,233.759720 286.890045,232.107239 
z"/>
<path fill="#5F1CEC" opacity="1.000000" stroke="none" 
	d="
M314.255066,228.197479 
	C311.986298,228.404587 309.308899,228.543564 306.337158,228.433792 
	C308.643982,228.166489 311.245209,228.147934 314.255066,228.197479 
z"/>
<path fill="#F412FE" opacity="1.000000" stroke="none" 
	d="
M135.235107,199.626129 
	C134.051331,198.880600 133.022614,197.797882 131.946854,196.386871 
	C133.063263,197.135376 134.226715,198.212173 135.235107,199.626129 
z"/>
<path fill="#16F0FE" opacity="1.000000" stroke="none" 
	d="
M192.765167,269.354340 
	C193.893906,269.828186 194.843750,270.637543 195.892487,271.756165 
	C194.856354,271.273560 193.721329,270.481689 192.765167,269.354340 
z"/>
<path fill="#F21AFE" opacity="1.000000" stroke="none" 
	d="
M43.208191,206.617462 
	C42.476921,206.450455 41.864716,205.945801 41.138763,205.153961 
	C41.792423,205.337799 42.559837,205.808807 43.208191,206.617462 
z"/>
<path fill="#16F0FE" opacity="1.000000" stroke="none" 
	d="
M109.252930,273.194275 
	C109.573433,273.151031 110.054985,273.305023 110.666924,273.683533 
	C110.336205,273.735840 109.875084,273.563660 109.252930,273.194275 
z"/>
<path fill="#F412FE" opacity="1.000000" stroke="none" 
	d="
M206.507111,270.501343 
	C206.576279,270.869415 206.405869,270.975098 206.090088,271.136841 
	C205.669037,270.959198 205.389587,270.719360 205.076019,270.203308 
	C205.451706,270.033020 205.861511,270.139008 206.507111,270.501343 
z"/>
<path fill="#5F1BEC" opacity="1.000000" stroke="none" 
	d="
M197.158783,273.382080 
	C197.601685,273.212311 198.121185,273.329895 198.800201,273.669952 
	C198.384933,273.818085 197.810150,273.743744 197.158783,273.382080 
z"/>
<path fill="#5F1CEC" opacity="1.000000" stroke="none" 
	d="
M328.012024,282.369263 
	C328.450958,282.216278 329.026154,282.343048 329.768433,282.719788 
	C329.339783,282.862854 328.744049,282.755920 328.012024,282.369263 
z"/>
<path fill="#16F0FE" opacity="1.000000" stroke="none" 
	d="
M440.164795,289.193634 
	C440.557434,289.174805 441.120178,289.417328 441.864532,289.935730 
	C441.475708,289.959381 440.905334,289.707184 440.164795,289.193634 
z"/>
<path fill="#F412FE" opacity="1.000000" stroke="none" 
	d="
M131.855804,195.931396 
	C132.016205,196.067703 131.770050,196.141449 131.770050,196.141449 
	C131.770050,196.141449 131.521729,196.076828 131.426910,196.000015 
	C131.300919,195.670319 131.269745,195.417450 131.238586,195.164566 
	C131.286209,195.283218 131.313446,195.416901 131.386917,195.516495 
	C131.467514,195.625748 131.590744,195.703568 131.855804,195.931396 
z"/>
<path fill="#F412FE" opacity="1.000000" stroke="none" 
	d="
M215.982147,199.821747 
	C216.032852,200.012558 215.619812,200.042038 215.619812,200.042038 
	C215.619812,200.042038 215.271820,199.817703 215.172531,199.636612 
	C215.359314,199.513992 215.645370,199.572464 215.982147,199.821747 
z"/>
<path fill="#F80EFE" opacity="1.000000" stroke="none" 
	d="
M274.102173,203.650955 
	C273.755371,203.802109 273.446075,203.636566 273.086243,203.194641 
	C273.403687,203.056915 273.771637,203.195587 274.102173,203.650955 
z"/>
<path fill="#16F0FE" opacity="1.000000" stroke="none" 
	d="
M439.041870,288.227234 
	C439.345428,288.085449 439.696930,288.223114 440.062256,288.669373 
	C439.747314,288.820892 439.418549,288.663788 439.041870,288.227234 
z"/>
<path fill="#5F1BEC" opacity="1.000000" stroke="none" 
	d="
M213.613678,197.719604 
	C213.586838,197.852310 213.237122,197.650101 213.211456,197.551270 
	C213.385727,197.334335 213.537292,197.379150 213.613678,197.719604 
z"/>
<path fill="#5F1CEC" opacity="1.000000" stroke="none" 
	d="
M280.284851,237.893768 
	C280.150665,237.556046 280.357941,237.342590 280.869598,237.162018 
	C280.909424,237.389648 280.726868,237.664017 280.284851,237.893768 
z"/>
<path fill="#F80EFE" opacity="1.000000" stroke="none" 
	d="
M273.066711,202.653427 
	C272.777008,202.825592 272.475769,202.688477 272.061584,202.320251 
	C272.317444,202.174118 272.686310,202.259140 273.066711,202.653427 
z"/>
<path fill="#16F0FE" opacity="1.000000" stroke="none" 
	d="
M195.879150,272.307831 
	C196.246567,272.200470 196.558884,272.386841 196.867157,272.861023 
	C196.516769,272.966400 196.170410,272.783997 195.879150,272.307831 
z"/>
<path fill="#F21AFE" opacity="1.000000" stroke="none" 
	d="
M41.047829,204.737228 
	C40.823170,204.943192 40.561852,204.833069 40.246254,204.430634 
	C40.483067,204.157623 40.756130,204.251907 41.047829,204.737228 
z"/>
<path fill="#F40EFE" opacity="1.000000" stroke="none" 
	d="
M73.992599,207.770340 
	C73.762115,207.976349 73.487450,207.854630 73.145447,207.432220 
	C73.388382,207.154221 73.678482,207.257935 73.992599,207.770340 
z"/>
<path fill="#F40EFE" opacity="1.000000" stroke="none" 
	d="
M75.082291,208.662506 
	C74.782982,208.787735 74.479530,208.609970 74.083679,208.176117 
	C74.353577,208.066528 74.715858,208.213028 75.082291,208.662506 
z"/>
<path fill="#F40EFE" opacity="1.000000" stroke="none" 
	d="
M76.124931,209.642609 
	C75.770187,209.791534 75.468796,209.617920 75.102455,209.176941 
	C75.417763,209.046417 75.798027,209.183258 76.124931,209.642609 
z"/>
<path fill="#11F3FE" opacity="1.000000" stroke="none" 
	d="
M397.565491,236.476990 
	C397.600006,236.450516 397.533295,236.406204 397.498047,236.430954 
	C397.462769,236.455704 397.531006,236.503464 397.565491,236.476990 
z"/>
<path fill="#5F1CEC" opacity="1.000000" stroke="none" 
	d="
M315.475403,227.230515 
	C315.626556,227.159119 315.545654,227.647781 315.349792,227.799255 
	C315.153931,227.950714 315.191956,227.930206 315.170013,227.922211 
	C315.076447,227.672623 315.135162,227.468506 315.475403,227.230515 
z"/>
<path fill="#FCFBFF" opacity="1.000000" stroke="none" 
	d="
M453.709259,287.853241 
	C452.281464,287.661652 450.853668,287.470062 449.087341,286.872864 
	C448.571869,286.169098 448.310211,286.011444 447.963867,285.994263 
	C447.963867,285.994263 447.977234,286.018127 447.955811,285.744171 
	C447.625122,285.300537 447.315796,285.130859 447.006500,284.961182 
	C447.006500,284.961182 446.996277,285.003571 447.030273,284.602234 
	C444.918823,277.400757 447.441956,271.845337 455.216217,268.375732 
	C460.332550,266.092346 465.926666,264.879486 471.261230,263.611877 
	C467.639709,273.636292 463.702515,282.970490 453.709259,287.853241 
z"/>
<path fill="#11F3FE" opacity="1.000000" stroke="none" 
	d="
M454.131653,287.918945 
	C463.702515,282.970490 467.639709,273.636292 471.420044,263.472748 
	C471.753326,262.350281 471.882202,261.791595 472.011047,261.232849 
	C472.497253,261.131470 472.979706,260.986664 473.471008,260.944672 
	C473.776367,260.918549 474.095062,261.048096 475.041351,261.228760 
	C472.320465,270.952026 468.316986,279.809448 460.535980,286.443909 
	C459.127808,287.644531 456.577209,287.505310 454.131653,287.918945 
z"/>
<path fill="#F40EFE" opacity="1.000000" stroke="none" 
	d="
M471.636658,261.238159 
	C471.882202,261.791595 471.753326,262.350281 471.465637,263.048096 
	C465.926666,264.879486 460.332550,266.092346 455.216217,268.375732 
	C447.441956,271.845337 444.918823,277.400757 447.051331,284.596649 
	C442.940796,283.016083 442.554260,279.682220 444.052551,275.975983 
	C446.574402,269.737823 451.982849,266.944519 457.960327,265.059509 
	C462.358093,263.672699 466.825745,262.507446 471.636658,261.238159 
z"/>
<path fill="#F40EFE" opacity="1.000000" stroke="none" 
	d="
M447.953400,286.238281 
	C448.310211,286.011444 448.571869,286.169098 448.758362,286.702881 
	C448.414948,286.927643 448.139923,286.775574 447.953400,286.238281 
z"/>
<path fill="#F40EFE" opacity="1.000000" stroke="none" 
	d="
M447.002472,285.256042 
	C447.315796,285.130859 447.625122,285.300537 447.965790,285.753540 
	C447.664246,285.874908 447.331360,285.712921 447.002472,285.256042 
z"/>
<path fill="#11F3FE" opacity="1.000000" stroke="none" 
	d="
M203.075256,199.877441 
	C204.446320,200.860580 206.320969,201.544449 207.110580,202.873138 
	C215.073257,216.271912 204.033615,239.556122 188.646088,242.001801 
	C187.886154,242.122604 187.058411,241.816895 186.466736,241.281052 
	C187.192917,240.578262 187.714630,240.304230 188.582657,240.018448 
	C200.796722,235.106674 205.895096,225.350922 206.708160,213.381882 
	C206.982590,209.342041 204.388077,205.107330 203.062027,200.691574 
	C203.037964,200.240128 203.056610,200.058792 203.075256,199.877441 
z"/>
<path fill="#12F2FE" opacity="1.000000" stroke="none" 
	d="
M260.855957,204.090378 
	C262.162140,205.149704 264.117737,205.944427 264.673859,207.309357 
	C270.118652,220.673218 264.317078,241.927902 246.023163,245.686859 
	C245.443695,245.805939 244.721664,245.231155 244.394714,244.557373 
	C245.165939,243.995987 245.608551,243.857071 246.384033,243.679459 
	C261.630890,236.994827 268.579987,217.861954 260.814819,204.676682 
	C260.831726,204.481491 260.855957,204.090378 260.855957,204.090378 
z"/>
<path fill="#F40EFE" opacity="1.000000" stroke="none" 
	d="
M260.569092,203.962738 
	C260.855957,204.090378 260.831726,204.481491 260.530334,204.845032 
	C249.084824,215.682175 244.989639,228.750916 246.051147,243.718155 
	C245.608551,243.857071 245.165939,243.995987 244.376892,244.196228 
	C240.127228,230.407196 248.869293,210.811783 257.668732,204.167526 
	C258.276825,203.708344 259.399078,203.930038 260.569092,203.962738 
z"/>
<path fill="#F70BFE" opacity="1.000000" stroke="none" 
	d="
M202.698578,199.871185 
	C203.056610,200.058792 203.037964,200.240128 202.860306,200.965485 
	C190.987213,211.761551 187.890961,225.249695 188.236343,240.030182 
	C187.714630,240.304230 187.192917,240.578262 186.378189,240.897141 
	C184.953796,228.464005 186.647598,216.608459 194.590622,206.453445 
	C196.634583,203.840271 199.716721,202.039139 202.698578,199.871185 
z"/>
<path fill="#FFFFFF" opacity="1.000000" stroke="none" 
	d="
M164.987427,241.007416 
	C165.431854,239.768585 165.607971,238.314957 166.385925,237.343094 
	C167.456696,236.005341 168.982559,235.031845 170.625595,233.674561 
	C170.880676,235.519440 170.823608,237.592056 170.154221,239.893509 
	C169.541885,240.122345 169.063309,240.223923 169.063309,240.223938 
	C168.597626,240.160904 168.131927,240.097870 166.909180,240.054871 
	C165.763870,240.385742 165.375641,240.696579 164.987427,241.007416 
z"/>
<path fill="#5F1BEC" opacity="1.000000" stroke="none" 
	d="
M164.998444,241.045013 
	C165.375641,240.696579 165.763870,240.385742 166.560059,240.132095 
	C166.510300,240.461243 166.052551,240.733215 165.324692,241.075912 
	C165.054581,241.146637 165.009460,241.082596 164.998444,241.045013 
z"/>
<path fill="#5F1BEC" opacity="1.000000" stroke="none" 
	d="
M169.211884,240.419083 
	C169.063309,240.223923 169.541885,240.122345 169.786530,240.137878 
	C170.031189,240.153412 170.127335,240.542496 170.205139,240.727478 
	C169.938721,240.926559 169.631226,240.827164 169.211884,240.419083 
z"/>
<path fill="#FBFDFF" opacity="1.000000" stroke="none" 
	d="
M119.816193,222.623413 
	C124.470604,226.849243 129.125015,231.075089 133.977539,236.068390 
	C134.116272,239.282425 134.381592,241.789276 133.940598,244.165024 
	C132.143127,253.848694 130.582611,263.695770 122.012650,270.091949 
	C121.166191,267.862427 120.308388,266.039948 119.865860,264.121674 
	C116.677574,250.301239 117.508400,236.459595 119.816193,222.623413 
z"/>
<path fill="#F412FE" opacity="1.000000" stroke="none" 
	d="
M119.787109,222.324005 
	C117.508400,236.459595 116.677574,250.301239 119.865860,264.121674 
	C120.308388,266.039948 121.166191,267.862427 121.875107,270.258362 
	C121.699921,270.993988 121.441505,271.116241 121.143219,271.154236 
	C119.460045,266.797272 117.061462,262.571930 116.230751,258.058105 
	C113.938591,245.602997 115.011406,233.130615 117.483315,220.140884 
	C118.455666,220.946106 119.106850,221.485352 119.787109,222.324005 
z"/>
<path fill="#FCFBFF" opacity="1.000000" stroke="none" 
	d="
M125.187248,198.373901 
	C125.469910,198.563354 125.752579,198.752808 126.270119,199.249344 
	C126.565254,199.844940 126.741959,200.004471 127.035103,200.035004 
	C127.035103,200.035004 126.975586,200.014572 126.917862,200.352722 
	C131.324341,208.751450 134.498627,217.177231 133.915619,226.379761 
	C133.416885,226.108154 133.194656,226.045258 132.972443,225.982361 
	C132.972443,225.982361 132.977890,226.016968 132.965393,225.737488 
	C132.639786,225.291138 132.326675,225.124268 132.013550,224.957397 
	C132.013550,224.957397 131.998978,225.002426 132.042068,224.665100 
	C131.385773,223.543457 130.686386,222.759109 129.987000,221.974777 
	C129.987000,221.974777 129.985855,222.010742 129.985504,221.656174 
	C126.011673,214.155853 122.463966,206.921021 125.187248,198.373901 
z"/>
<path fill="#11F3FE" opacity="1.000000" stroke="none" 
	d="
M121.333054,271.455566 
	C121.441505,271.116241 121.699921,270.993988 122.056007,270.621094 
	C130.582611,263.695770 132.143127,253.848694 133.940598,244.165024 
	C134.381592,241.789276 134.116272,239.282425 134.149994,236.365570 
	C135.120300,236.861267 137.011398,237.861771 136.975647,238.787903 
	C136.556976,249.636383 134.549194,260.127563 127.572723,268.870209 
	C126.319054,270.441254 123.577499,270.824982 121.333054,271.455566 
z"/>
<path fill="#16F0FE" opacity="1.000000" stroke="none" 
	d="
M134.192123,226.588470 
	C134.498627,217.177231 131.324341,208.751450 126.923363,200.321747 
	C128.794327,202.400436 131.394501,204.600769 132.251785,207.345474 
	C134.300995,213.906219 135.678711,220.694153 137.002228,227.454041 
	C137.426743,229.622223 136.960449,229.713516 134.605225,228.089340 
	C134.305573,227.232819 134.241074,226.912201 134.192123,226.588470 
z"/>
<path fill="#F40EFE" opacity="1.000000" stroke="none" 
	d="
M124.821396,198.267761 
	C122.463966,206.921021 126.011673,214.155853 130.003113,221.659805 
	C124.574806,218.453079 120.028801,206.011337 122.233475,200.338348 
	C122.575645,199.457901 123.695381,198.879639 124.821396,198.267761 
z"/>
<path fill="#F40EFE" opacity="1.000000" stroke="none" 
	d="
M129.879929,222.328888 
	C130.686386,222.759109 131.385773,223.543457 132.064240,224.656860 
	C131.286514,224.218292 130.529694,223.450638 129.879929,222.328888 
z"/>
<path fill="#F40EFE" opacity="1.000000" stroke="none" 
	d="
M133.915619,226.379761 
	C134.241074,226.912201 134.305573,227.232819 134.388794,227.800568 
	C133.900803,227.592209 133.409622,227.133575 132.945435,226.328644 
	C133.194656,226.045258 133.416885,226.108154 133.915619,226.379761 
z"/>
<path fill="#16F0FE" opacity="1.000000" stroke="none" 
	d="
M127.007736,199.857361 
	C126.741959,200.004471 126.565254,199.844940 126.501022,199.364975 
	C126.728531,199.275024 126.889633,199.443771 127.007736,199.857361 
z"/>
<path fill="#F40EFE" opacity="1.000000" stroke="none" 
	d="
M132.012939,225.253082 
	C132.326675,225.124268 132.639786,225.291138 132.981735,225.743759 
	C132.677841,225.869263 132.345093,225.709015 132.012939,225.253082 
z"/>
<path fill="#5F1CEC" opacity="1.000000" stroke="none" 
	d="
M349.900635,274.087646 
	C349.444977,274.107697 349.052734,273.772003 348.431519,273.322113 
	C348.421051,272.564209 348.639526,271.920471 348.988403,271.030151 
	C349.822235,270.825623 350.525635,270.867706 351.582428,270.922852 
	C351.278564,271.867889 350.621277,272.799896 349.900635,274.087646 
z"/>
<path fill="#5F1CEC" opacity="1.000000" stroke="none" 
	d="
M331.192444,227.087402 
	C331.506531,226.852310 331.911530,226.874619 332.620667,226.923096 
	C332.377655,227.081116 331.830505,227.212952 331.192444,227.087402 
z"/>
<path fill="#5F1CEC" opacity="1.000000" stroke="none" 
	d="
M333.256744,226.882263 
	C333.284546,226.671753 333.598145,226.431992 333.994934,226.418762 
	C333.899597,226.714554 333.721069,226.783783 333.256744,226.882263 
z"/>
<path fill="#FCFBFF" opacity="1.000000" stroke="none" 
	d="
M353.271362,269.916809 
	C354.424530,265.501465 355.936066,261.076752 357.683411,256.407501 
	C357.629883,260.505341 357.340546,264.847717 356.754547,269.520325 
	C355.515167,269.869507 354.572479,269.888489 353.271362,269.916809 
z"/>
<path fill="#5F1CEC" opacity="1.000000" stroke="none" 
	d="
M352.162781,270.855957 
	C351.955597,270.584442 352.091766,270.309326 352.594879,270.084747 
	C352.806000,270.390442 352.654083,270.629486 352.162781,270.855957 
z"/>
<path fill="#FCFBFF" opacity="1.000000" stroke="none" 
	d="
M188.582657,240.018463 
	C187.890961,225.249695 190.987213,211.761551 202.903015,201.235596 
	C204.388077,205.107330 206.982590,209.342041 206.708160,213.381882 
	C205.895096,225.350922 200.796722,235.106674 188.582657,240.018463 
z"/>
<path fill="#FBFDFF" opacity="1.000000" stroke="none" 
	d="
M246.384033,243.679459 
	C244.989639,228.750916 249.084824,215.682175 260.513397,205.040222 
	C268.579987,217.861954 261.630890,236.994827 246.384033,243.679459 
z"/>
</svg>